<?xml version="1.0" encoding="UTF-8" standalone="no"?>
<!-- Created with Inkscape (http://www.inkscape.org/) -->

<svg
   xmlns:dc="http://purl.org/dc/elements/1.1/"
   xmlns:cc="http://creativecommons.org/ns#"
   xmlns:rdf="http://www.w3.org/1999/02/22-rdf-syntax-ns#"
   xmlns:svg="http://www.w3.org/2000/svg"
   xmlns="http://www.w3.org/2000/svg"
   xmlns:sodipodi="http://sodipodi.sourceforge.net/DTD/sodipodi-0.dtd"
   xmlns:inkscape="http://www.inkscape.org/namespaces/inkscape"
   width="192.47726mm"
   height="243.82845mm"
   viewBox="0 0 192.47726 243.82845"
   version="1.1"
   id="svg8"
   inkscape:version="0.92.3 (2405546, 2018-03-11)"
   sodipodi:docname="icon.svg">
  <defs
     id="defs2" />
  <sodipodi:namedview
     id="base"
     pagecolor="#ffffff"
     bordercolor="#666666"
     borderopacity="1.0"
     inkscape:pageopacity="0.0"
     inkscape:pageshadow="2"
     inkscape:zoom="0.98994949"
     inkscape:cx="471.05219"
     inkscape:cy="474.98805"
     inkscape:document-units="mm"
     inkscape:current-layer="layer1"
     showgrid="false"
     inkscape:window-width="1920"
     inkscape:window-height="1017"
     inkscape:window-x="1912"
     inkscape:window-y="-8"
     inkscape:window-maximized="1" />
  <metadata
     id="metadata5">
    <rdf:RDF>
      <cc:Work
         rdf:about="">
        <dc:format>image/svg+xml</dc:format>
        <dc:type
           rdf:resource="http://purl.org/dc/dcmitype/StillImage" />
        <dc:title></dc:title>
      </cc:Work>
    </rdf:RDF>
  </metadata>
  <g
     inkscape:label="Layer 1"
     inkscape:groupmode="layer"
     id="layer1"
     transform="translate(-23.449482,-24.721666)">
    <path
       style="fill:#ff0000;stroke-width:0.26458332"
       id="path3735"
       d="m 32.606652,24.721666 c 2.531604,0.451955 4.965083,1.014137 7.290998,2.134264 1.739948,0.746488 3.381407,1.674093 5.024318,2.616785 0.663959,0.522153 1.531414,0.527907 2.278603,0.820618 0.814038,0.318903 1.577088,0.793737 2.400636,1.114888 0.937678,0.701014 2.104144,0.788488 3.163427,1.149641 0.03835,0.01307 1.618763,0.761516 1.698437,0.799188 0.280699,0.101946 0.567023,0.18956 0.842095,0.305837 0.806071,0.340736 0.774469,0.431242 1.570294,0.729096 0.890947,0.333452 1.571204,0.40907 2.44031,0.860214 1.725583,0.928743 3.685299,1.268446 5.438309,2.098032 1.675792,0.760867 3.41979,1.428829 5.201187,1.904087 1.859696,0.767778 3.714692,1.601959 5.648939,2.166001 1.539878,0.928893 3.220283,1.566769 4.912233,2.153967 0.268793,0.0731 0.549778,0.110914 0.806381,0.219305 0.547508,0.231275 1.029457,0.597758 1.568963,0.847127 0.812242,0.375431 1.672194,0.58964 2.503845,0.918274 1.722332,0.427945 3.183168,1.405178 4.873659,1.933781 0.714849,0.477065 1.618298,0.511154 2.385711,0.833925 0.802011,0.337322 1.547977,0.836848 2.35907,1.17853 0.915914,0.723001 2.069317,0.822492 3.119493,1.188331 0.01773,0.0062 1.629103,0.776153 1.690333,0.805392 1.620387,0.67931 3.421667,0.957898 4.951557,1.819304 1.53534,0.756174 3.01677,1.544156 4.6991,1.910244 1.61964,0.712478 3.19748,1.564521 4.8909,2.088354 1.44909,0.953915 3.07411,1.564365 4.70272,2.132444 1.77077,0.361611 3.44898,1.053031 5.08272,1.826844 0.71157,0.482981 1.60779,0.47502 2.38162,0.763268 0.82497,0.307292 1.60833,0.787926 2.43772,1.10921 0.67455,0.528341 1.56222,0.61808 2.3085,0.97328 0.78878,0.375423 1.5015,0.881234 2.30931,1.240991 0.64421,0.554755 1.51503,0.659331 2.24633,1.019995 0.76649,0.378018 1.54272,0.921279 2.24561,1.407398 0.2242,0.140756 0.43797,0.299689 0.6726,0.422265 0.23186,0.121126 0.49475,0.177734 0.72245,0.306522 0.97503,0.551495 1.79251,1.342782 2.73023,1.946759 1.23033,1.165371 2.49223,2.264918 3.60187,3.546618 1.12209,1.547061 2.18927,3.104822 3.13296,4.771927 0.59059,1.734643 1.45891,3.347945 2.0016,5.100916 0.45798,2.113719 0.84168,4.25111 1.11506,6.398069 0.26511,2.274419 0.30851,4.566576 0.33342,6.853843 0.0606,1.999774 -0.23355,3.99532 -0.56534,5.96275 -0.28552,1.78327 -0.78273,3.46626 -1.43724,5.1427 -0.58773,1.78766 -1.13618,3.58565 -1.85457,5.32592 -0.71581,1.77065 -1.30393,3.59673 -2.1921,5.2903 -0.80708,1.51439 -1.41344,3.12513 -2.26287,4.61506 -0.69629,1.55553 -1.60462,2.9773 -2.52164,4.40469 -0.86791,1.46513 -1.59552,2.99388 -2.47497,4.4529 -0.91131,1.59642 -1.94332,3.11261 -2.8681,4.70308 -0.9763,1.39146 -1.80962,2.87546 -2.7483,4.29194 -1.05395,1.25372 -1.79004,2.72645 -2.77499,4.02996 -0.82289,1.41732 -1.79879,2.72249 -2.725,4.06874 -0.81066,1.40695 -1.7571,2.70203 -2.81204,3.93287 -0.89354,1.36266 -1.82835,2.69921 -2.84934,3.96989 -1.27945,1.3047 -2.22933,2.87278 -3.37093,4.29289 -0.94918,1.36186 -2.25307,2.42169 -3.23816,3.7468 -0.95879,1.33966 -1.89967,2.69769 -3.03054,3.89941 -1.03322,1.22872 -2.20071,2.32776 -3.31174,3.4832 -1.17189,1.10744 -2.25208,2.30952 -3.43973,3.40067 -1.09505,1.16181 -2.25844,2.25174 -3.36768,3.39903 -1.2938,1.12459 -2.24774,2.54402 -3.412686,3.78945 -1.659724,1.63375 -3.214167,3.36904 -4.936459,4.93783 -1.545373,1.44128 -3.139463,2.8346 -4.653848,4.30842 -1.165792,1.13508 -2.321785,2.27493 -3.459967,3.438 -1.144762,1.12567 -2.30409,2.24249 -3.423579,3.39362 -1.118986,1.13598 -2.249979,2.25617 -3.364479,3.39722 -1.416968,1.21716 -2.676641,2.60244 -4.036729,3.87999 -1.38149,1.5298 -3.027137,2.7582 -4.563081,4.11866 -1.553734,1.52006 -3.246249,2.88431 -4.811837,4.39093 -1.535533,1.35104 -2.807247,2.95998 -4.042185,4.58072 -1.152718,1.35388 -2.28383,2.73342 -3.56081,3.9734 -1.208256,1.13913 -2.10303,2.5368 -3.050857,3.88793 -1.060262,1.6611 -2.171494,3.28209 -3.220863,4.9511 -1.042979,1.48248 -2.017107,3.03402 -2.61303,4.7519 -0.52849,1.97653 -0.541528,4.04006 -0.573799,6.07206 0.12211,1.12883 0.04173,2.4171 0.729702,3.3924 0.310613,0.44034 0.723191,0.79941 1.069242,1.21247 1.294273,1.21496 3.083703,1.57887 4.748593,2.03678 1.884987,0.12526 3.415697,1.04193 5.048682,1.87348 0.245247,0.0999 0.505057,0.1697 0.735742,0.29976 0.260983,0.14714 0.479158,0.36038 0.728851,0.52595 1.032073,0.68437 2.06031,1.24037 3.217693,1.68112 1.571627,0.93853 3.196018,1.84319 4.93192,2.43807 0.290584,0.0641 0.59068,0.0946 0.871752,0.19228 0.08273,0.0288 1.582748,0.75572 1.70516,0.80689 0.859367,0.3593 1.734339,0.55772 2.645072,0.73007 1.751261,0.7238 3.689839,0.63514 5.448474,1.25939 1.730772,0.71773 3.582234,1.01317 5.382006,1.50364 1.905736,0.44876 3.868341,0.51118 5.816526,0.56617 2.235639,0.0423 4.471916,0.0357 6.707854,0.0302 2.27091,-0.004 4.54182,-0.004 6.81272,-0.007 2.26855,-7.9e-4 4.5371,0.002 6.80564,-10e-4 2.26785,2e-5 4.53571,0.003 6.80356,5e-5 2.26784,4e-5 4.53569,0.003 6.80354,2e-5 2.26785,3e-5 4.53571,0.003 6.80357,0 2.16217,0.0531 4.29132,0.0395 6.42871,-0.27962 1.93504,-0.25145 3.8592,-0.34394 5.77241,-0.7326 0.92008,-0.2774 1.93683,-0.13238 2.86157,-0.34072 0.86473,-0.19482 1.73361,-0.68705 2.58984,-0.94717 1.84273,-0.37513 3.62482,-0.93768 5.48753,-1.22257 1.57672,-0.86476 3.32967,-1.28674 5.01881,-1.87085 0.88148,-0.35972 1.88558,-0.24883 2.78665,-0.4761 0.86451,-0.21805 1.7123,-0.71143 2.57437,-0.9763 0.30733,-0.0769 0.62092,-0.13201 0.922,-0.23054 2.32757,-0.7617 -0.82015,0.0918 1.62438,-0.58616 0.97083,-0.26923 1.68575,-0.30375 2.60939,-0.75381 1.78246,-0.79199 3.70667,-1.3185 5.62073,-1.69362 1.90439,-0.28685 3.62862,-1.27356 5.41687,-1.95568 0.28325,-0.0863 0.58354,-0.12923 0.84973,-0.2589 0.24838,-0.12098 0.43807,-0.33851 0.6735,-0.48309 1.08311,-0.66514 0.46736,-0.17422 1.59561,-0.75795 1.95016,-1.00896 -0.62842,0.12334 1.47681,-0.76096 -2.97164,1.68922 -5.92972,3.40254 -8.91494,5.06766 -0.24031,0.13404 0.43972,-0.333 0.67686,-0.47257 3.4383,-2.02371 6.9531,-3.91894 10.34721,-6.01593 2.9073,-1.79623 -11.83018,6.84869 -8.88618,5.11326 4.27182,-2.51817 21.57308,-12.39029 1.32441,-0.81628 1.33448,-0.93035 2.45384,-2.11215 3.6919,-3.15231 1.32644,-0.9096 2.60633,-1.85543 3.81816,-2.91377 1.21466,-1.04972 2.38265,-2.16849 3.50671,-3.31597 1.2232,-1.13121 2.28476,-2.25304 3.02368,-3.75411 0.6329,-1.59842 1.4007,-3.13049 2.127,-4.68831 0.71116,-1.55095 1.27185,-3.15383 1.94755,-4.72339 0.84172,-1.54972 1.22032,-3.27341 1.92118,-4.87902 0.65786,-1.63328 1.27767,-3.29382 1.6851,-5.00915 0.62657,-1.78009 1.30761,-3.49726 1.63942,-5.3645 0.21535,-1.93023 0.62364,-3.82733 0.84475,-5.75673 0.20076,-2.1403 0.21062,-4.29174 0.2306,-6.43943 0.01,-2.26538 7.9e-4,-4.53076 0.002,-6.79615 0.129,-2.04319 -0.1905,-4.05183 -0.44002,-6.07042 0,0 9.92802,-5.2087 9.92802,-5.2087 v 0 c 0.23953,2.06288 0.61757,4.11301 0.47697,6.20048 0.006,2.26736 0.007,4.53476 0.003,6.80213 -0.005,2.17541 -0.0122,4.3538 -0.16787,6.52466 -0.16602,1.96011 -0.59487,3.86597 -0.81533,5.81453 -0.26415,1.8884 -0.67459,3.72071 -1.61128,5.40489 -0.31114,1.81701 -0.9773,3.50134 -1.56715,5.24 -0.25054,0.51649 -0.57793,1.00058 -0.76251,1.54415 -0.37331,1.09933 -0.43526,2.32511 -1.18115,3.28884 -0.23559,0.61536 -0.3882,1.06451 -0.68879,1.65115 -0.11834,0.23097 -0.29875,0.43044 -0.39227,0.67253 -0.31128,0.80575 -0.2913,1.75005 -0.82397,2.48076 -1.08043,1.98094 0.29197,-0.60975 -0.73405,1.59293 -0.23262,0.4994 -0.61565,0.92203 -0.82811,1.43035 -0.1181,0.28257 -0.16094,0.59099 -0.24142,0.88649 -0.10865,0.25827 -0.21729,0.51654 -0.32594,0.77481 -0.53098,1.04807 -0.85121,2.20233 -1.74033,3.03193 -0.18756,0.17501 -0.4416,0.26833 -0.62875,0.44379 -0.19334,0.18126 -0.33475,0.41096 -0.50212,0.61644 -0.40183,0.38093 -0.73131,0.83424 -1.13763,1.21037 -0.18877,0.17475 -0.44365,0.26736 -0.63282,0.44166 -0.59399,0.54728 -1.08941,1.24178 -1.67833,1.80022 -0.92096,0.59015 -1.58589,1.46753 -2.47982,2.09024 -0.2194,0.15284 -0.49464,0.20957 -0.72029,0.35302 -0.2214,0.14075 -0.40834,0.32951 -0.6125,0.49427 -1.40614,0.85526 -2.30803,2.20523 -3.71625,3.0772 -3.39332,2.04438 -7.02923,3.73167 -10.17995,6.13313 -2.72975,2.08059 11.86824,-6.90145 8.9083,-5.16388 -3.42852,2.01263 -6.83815,4.05945 -10.31405,5.98909 -2.97951,1.65407 5.86706,-3.46906 8.82455,-5.1622 0.24113,-0.13804 -0.4474,0.32961 -0.67109,0.49442 -3.43814,2.00994 -6.87627,4.01989 -10.31441,6.02983 -1.51213,0.79792 -3.01739,1.63057 -4.629,2.20913 -1.7735,0.76898 -3.59353,1.48039 -5.50968,1.79332 -1.88901,0.48185 -3.75476,1.05152 -5.54595,1.8277 -1.73962,0.4728 -3.46812,0.95913 -5.17744,1.53649 -1.76169,0.63169 -3.56726,0.95732 -5.36168,1.47035 -1.70167,0.59004 -3.40453,1.19232 -5.1198,1.72527 -1.8138,0.36779 -3.60679,0.85807 -5.39143,1.3427 -1.81231,0.62228 -3.64861,0.92443 -5.54671,1.17359 -1.92309,0.31062 -3.87477,0.37118 -5.79917,0.68151 -2.15902,0.2407 -4.32945,0.12862 -6.49831,0.15087 -2.26785,-0.003 -4.53571,-3e-5 -6.80357,0 -2.26784,-0.003 -4.53569,-3e-5 -6.80354,-3e-5 -2.26784,-0.003 -4.53569,-8e-5 -6.80353,-2e-5 -2.26839,-0.003 -4.536772,1e-4 -6.805156,0.003 -2.270831,0 -4.541665,0.004 -6.812494,0.008 -2.246376,0 -4.493347,0.01 -6.738954,-0.0596 -2.012256,-0.0901 -4.03444,-0.21662 -5.98466,-0.76256 -1.802236,-0.49151 -3.644495,-0.83389 -5.387726,-1.52746 -1.797516,-0.40704 -3.642567,-0.60323 -5.399278,-1.19976 -1.840574,-0.4629 -3.511751,-1.31148 -5.325396,-1.85257 -1.706234,-0.69915 -3.312636,-1.61008 -4.938757,-2.47513 -1.66192,-0.7363 -3.12532,-1.78715 -4.755084,-2.5792 -1.566881,-0.83747 -3.151957,-1.41568 -4.917858,-1.6969 -1.853467,-0.57715 -3.753504,-1.09298 -5.106397,-2.58666 -1.624632,-1.91486 -2.033974,-2.74548 -2.161146,-5.31868 0.0236,-2.11775 0.02249,-4.25068 0.411882,-6.34052 0.481822,-1.85495 1.379215,-3.52202 2.484308,-5.08337 1.248992,-1.6108 0.03089,0.0688 1.095518,-1.75975 0.485751,-0.83428 1.166971,-1.5524 1.680228,-2.31025 0.179067,-0.2644 0.293868,-0.56703 0.440801,-0.85055 0.455473,-0.72687 1.040678,-1.36337 1.497687,-2.07482 0.456621,-0.71083 0.707356,-1.48548 1.474129,-1.97485 1.774018,-2.13288 -0.638355,0.66212 1.199534,-1.15106 0.861102,-0.84952 1.456033,-1.96893 2.43001,-2.71229 1.192934,-1.6977 2.493187,-3.31982 3.94749,-4.79803 2.453135,-2.01819 -0.992544,0.88597 1.415302,-1.38451 1.099769,-1.03703 2.45311,-1.81855 3.406743,-3.01415 0.520694,-0.46116 0.984697,-0.98637 1.525865,-1.42332 1.054637,-0.85153 2.264516,-1.51504 3.022574,-2.70201 1.464481,-1.16797 2.650376,-2.59934 4.009583,-3.87675 0.899673,-0.63289 1.469448,-1.52516 2.267029,-2.26732 0.187616,-0.17458 0.44169,-0.26723 0.62887,-0.44228 0.193193,-0.18066 0.334396,-0.40991 0.501594,-0.61487 0.400553,-0.3796 0.728792,-0.83139 1.132724,-1.2074 0.187068,-0.17414 0.440684,-0.26623 0.627316,-0.44083 0.584192,-0.54654 1.066607,-1.2476 1.629894,-1.8188 0.904388,-0.63556 1.483151,-1.5344 2.288151,-2.27847 0.196871,-0.18197 0.458454,-0.28416 0.655677,-0.46575 0.208492,-0.19197 0.368173,-0.43096 0.55226,-0.64643 0.463389,-0.42746 0.864883,-0.91965 1.334876,-1.33983 0.243972,-0.21812 0.546639,-0.36367 0.791842,-0.58041 0.882145,-0.77972 1.667441,-1.69164 2.554057,-2.47069 1.827239,-1.41433 3.303413,-3.20062 4.919009,-4.84578 0.656368,-0.57351 1.273924,-1.1663 1.784324,-1.87933 0.432641,-0.60441 0.458218,-0.86621 1.010811,-1.38033 0.18782,-0.17475 0.41964,-0.29521 0.62946,-0.44281 1.027205,-1.25798 2.242857,-2.27385 3.358758,-3.43931 1.573033,-1.871 -0.459832,0.4336 1.178534,-1.0948 0.778303,-0.72607 1.322856,-1.72586 2.270604,-2.26456 1.027722,-1.25711 2.248122,-2.26754 3.326702,-3.46891 2.08964,-2.68004 -0.95705,1.12079 1.12153,-1.15192 0.73087,-0.79913 1.15107,-1.86601 1.97074,-2.59053 0.27425,-0.52116 0.47688,-0.98711 0.87976,-1.4291 0.75743,-0.83094 1.77522,-1.45607 2.29433,-2.49321 1.29515,-1.33038 2.18879,-2.90308 3.33648,-4.34785 0.87643,-0.70365 1.35615,-1.631 2.02347,-2.51791 0.1528,-0.20308 0.37604,-0.34847 0.51869,-0.5588 0.15616,-0.23023 0.24551,-0.49929 0.36826,-0.74893 0.58546,-0.8963 1.44293,-1.56433 2.03287,-2.45418 0.15669,-0.23633 0.22308,-0.52322 0.36793,-0.76698 0.1311,-0.22061 0.30421,-0.41338 0.45631,-0.62006 0.28159,-0.51325 0.51228,-0.99702 0.89575,-1.44668 0.16102,-0.18881 0.39291,-0.31169 0.54287,-0.5094 0.49934,-0.65833 0.81798,-1.50923 1.24,-2.21526 0.32746,-0.42688 0.73414,-0.79302 1.03162,-1.24131 0.15659,-0.23599 0.22286,-0.52257 0.36763,-0.76599 0.41769,-0.70229 0.91919,-1.36964 1.35256,-2.06548 1.2266,-1.15512 1.60765,-2.91628 2.85508,-4.0807 0.49793,-1.05015 1.16173,-2.2822 1.84973,-3.21754 0.17614,-0.23946 0.41711,-0.42894 0.57911,-0.67819 0.17414,-0.26791 0.2809,-0.57402 0.42135,-0.86103 0.41461,-0.71634 0.99316,-1.43175 1.35801,-2.167 0.37198,-0.74962 0.51262,-1.62078 1.12154,-2.25846 0.46384,-0.95321 0.91205,-1.29251 1.40324,-2.1021 0.43351,-0.71453 0.72051,-1.56093 1.12108,-2.29677 0.25881,-0.4855 0.62088,-0.91224 0.8685,-1.40354 0.13237,-0.26262 0.1777,-0.56105 0.28268,-0.83576 0.31626,-0.82758 0.83402,-1.51473 1.12891,-2.3513 0.26517,-0.51894 0.62976,-0.98529 0.87175,-1.51543 0.49711,-1.08901 0.84473,-2.57692 1.38027,-3.68561 0.68528,-1.74304 1.37993,-3.47282 1.84653,-5.29438 0.26599,-0.73075 0.7889,-1.67405 0.9967,-2.35576 0.25744,-0.84455 0.16687,-1.80045 0.51878,-2.62855 0.4605,-1.86575 0.63477,-3.84899 0.70065,-5.76268 -0.0235,-2.249 -0.0436,-4.502311 -0.27724,-6.741604 -0.24974,-2.088915 -0.64933,-4.154387 -1.04624,-6.218158 -0.49622,-1.687171 -1.37338,-3.205872 -1.89486,-4.882089 -0.88858,-1.607167 -1.90493,-3.103877 -3.00887,-4.568568 -1.06695,-1.18767 -2.2607,-2.251663 -3.46148,-3.301508 -1.33733,-0.952291 -2.65911,-1.900108 -4.11483,-2.668363 -1.40691,-0.89354 -2.91912,-1.53189 -4.39755,-2.291077 -1.51926,-0.747779 -3.01736,-1.513782 -4.58272,-2.164747 -1.60571,-0.677405 -3.22818,-1.263938 -4.84493,-1.907087 -1.6469,-0.700435 -3.3045,-1.327269 -5.04187,-1.761533 -1.60241,-0.625485 -3.18076,-1.283332 -4.68815,-2.11456 -1.6316,-0.623017 -3.18867,-1.430036 -4.8344,-2.017221 C 98.539508,61.08642 96.98793,60.262796 95.397925,59.494012 93.784035,58.821803 92.068696,58.404571 90.467182,57.694287 88.886571,56.979192 87.170423,56.621375 85.669532,55.719 84.126852,55.008068 82.594465,54.321728 80.97975,53.783015 79.330271,53.165014 77.79278,52.293207 76.086159,51.820854 74.429683,51.219303 72.864035,50.44392 71.21009,49.848544 69.552949,49.207811 67.920112,48.53102 66.336219,47.726319 64.435825,47.068308 62.591002,46.257728 60.693818,45.590057 58.902417,45.02324 57.133156,44.358411 55.431544,43.561404 53.608506,42.861076 51.70955,42.349216 49.959569,41.457856 c -1.62311,-0.620112 -3.281307,-1.136253 -4.850291,-1.901288 -1.587701,-0.708157 -3.307266,-1.05242 -4.834994,-1.909913 -1.589923,-0.681189 -3.212578,-1.277456 -4.75697,-2.048288 -1.632855,-0.891948 -3.227538,-1.841394 -4.947248,-2.561445 -2.271582,-0.995553 -4.660529,-1.519084 -7.120584,-1.814777 0,0 9.157085,-6.499424 9.157085,-6.499424 z"
       inkscape:connector-curvature="0" />
    <path
       style="fill:#ff00ff;stroke-width:0.26458332"
       id="path3737"
       d="m 34.142018,32.386561 c 2.133386,1.76173 4.18542,3.69493 5.689484,6.031145 1.217686,1.383916 2.085739,3.015469 3.177336,4.478493 0.992354,1.354723 1.78803,2.815852 2.72475,4.206015 0.952421,1.70428 1.538727,3.55222 2.373477,5.31055 0.919734,1.6007 1.347335,3.39371 2.033672,5.08353 0.770258,1.546836 1.271074,3.227803 2.07881,4.751408 0.861023,1.521847 1.501505,3.180162 2.018718,4.849559 0.872755,1.52183 1.401196,3.188806 2.008576,4.824616 0.393174,1.832041 0.883727,3.591618 1.475605,5.368615 0.715418,1.571345 1.140897,3.222625 1.845996,4.795298 0.682059,1.730449 1.137787,3.555582 1.569466,5.365194 0.776639,1.575065 1.306652,3.242956 1.910215,4.887117 0.349668,1.794928 1.191191,3.414241 1.711168,5.157102 0.625486,1.65033 0.971331,3.356627 1.649286,4.984627 0.623345,1.73612 1.250027,3.47624 1.64882,5.28047 0.583131,1.60288 1.36095,3.12088 1.938054,4.72434 0.527608,1.70843 1.198459,3.3835 1.84921,5.05451 0.471961,1.75536 1.070655,3.43381 1.700996,5.1365 0.762518,1.54675 1.19195,3.19693 1.898766,4.7649 0.58112,1.53089 1.314625,2.96225 2.420377,4.17793 0.96916,1.35685 1.819026,2.78007 2.707796,4.19146 0.728027,1.6436 1.377489,3.31938 2.032907,4.99842 0.783974,1.54168 1.208715,3.19948 1.914882,4.77226 0.666914,1.5601 1.327381,3.10517 2.129089,4.59895 0.76766,1.51243 1.45024,3.047 2.263434,4.53386 0.776396,1.50944 1.456888,3.0462 2.269754,4.53462 0.77538,1.51003 1.455389,3.04706 2.268048,4.53567 0.775179,1.51012 1.455188,3.04713 2.267839,4.53573 0.775182,1.51012 1.455198,3.04712 2.267853,4.53572 0.775186,1.51011 1.455203,3.04712 2.267858,4.53571 0.77519,1.51011 1.4552,3.04712 2.26786,4.53572 0.77518,1.51011 1.4552,3.04712 2.26785,4.53571 0.77519,1.51011 1.45521,3.04712 2.26786,4.53571 0.83299,1.59019 1.19276,3.38175 1.94324,5.00132 0.78498,1.56252 1.57107,3.11446 2.05324,4.80001 0.67439,1.557 1.45137,3.0675 2.03219,4.66245 0.99857,1.5915 1.60397,3.37455 2.38781,5.07011 0.89385,1.80615 1.80931,3.59177 2.8164,5.33573 0.97948,1.35794 1.65405,2.87067 2.74657,4.15009 0.94411,1.32408 2.11719,2.46519 3.19587,3.68303 1.20569,1.34038 2.66451,2.45067 3.84422,3.81266 1.12279,1.21667 2.48849,2.07318 3.82133,3.02898 1.45563,0.91469 2.92131,1.48196 4.61915,1.73207 1.7339,0.83811 3.55365,1.28114 5.45259,1.5228 2.17102,0.20358 4.35428,0.2033 6.53278,0.20843 2.26925,5.3e-4 4.53851,-0.004 6.80775,-0.0102 2.26933,-0.003 4.53867,-0.001 6.808,-0.004 1.81246,-0.12902 4.09151,-0.087 5.74297,-0.88221 1.65429,-0.65638 -0.41566,0.0263 1.34343,-0.318 -2.16094,1.05045 8.96933,-4.29304 6.91916,-3.10032 -11.01096,6.40581 -10.39013,5.36206 -6.91916,3.10032 3.13359,0.006 7.01143,-4.05506 11.24182,-5.46721 0.3461,-0.11553 0.71651,-0.1551 1.05542,-0.29026 0.62222,-0.24812 1.18039,-0.6338 1.7757,-0.94094 -2.95471,1.68642 -18.15755,10.0124 -15.2786,8.19969 3.37588,-2.1256 13.30057,-7.17086 16.77055,-9.13909 0.25237,-0.14315 1.05517,-0.47824 0.80465,-0.33189 -15.56436,9.09275 -10.78505,6.29904 -7.49632,4.13789 1.49059,-1.05122 2.96967,-2.11852 4.45213,-3.18116 1.28256,-1.05876 2.52376,-2.16482 3.69699,-3.34317 1.18449,-1.09582 2.25776,-2.30479 3.44332,-3.39917 1.08467,-1.24673 2.56575,-2.01215 3.81772,-3.06374 1.32311,-0.93438 2.10776,-2.37552 3.1468,-3.58195 0.97184,-1.27463 2.14832,-2.35372 3.09325,-3.64693 0.95437,-1.33863 1.8977,-2.66658 2.7451,-4.07625 0.99142,-1.30577 1.86334,-2.68811 2.74099,-4.07332 1.05539,-1.21609 -0.94942,1.29449 0,0 0.60677,-0.9164 -0.47472,-12.14527 0.27639,-12.94558 v 0 l 9.92802,-5.2087 c -0.66992,0.85797 0.69778,12.77937 0.10642,13.71211 v 0 c -0.17288,0.18627 0.14263,-0.21033 0,0 -0.15613,0.23025 -10.03444,-8.50341 -10.03444,-8.50341 0,0 10.5007,7.81652 10.03444,8.50341 -1.07979,1.20112 -1.5415,2.86774 -2.79348,3.94049 -0.39643,0.73537 -0.80488,1.51276 -1.24601,2.21845 -1.09983,1.75947 0.0999,-0.42929 -1.04985,1.23718 -0.16133,0.23383 -0.25722,0.50661 -0.38583,0.75991 -0.51195,0.63765 -0.88347,1.41958 -1.47183,1.99072 -0.1814,0.17608 -0.43083,0.27265 -0.60904,0.45196 -0.37225,0.37452 -0.54974,0.91917 -1.01362,1.21741 -0.16334,0.22939 -0.32667,0.45878 -0.49001,0.68817 -0.18632,0.16545 -0.40089,0.30372 -0.55894,0.49635 -0.69884,0.85172 -1.07134,1.98837 -1.99061,2.6573 -0.22246,0.15648 -0.44492,0.31297 -0.66738,0.46945 -0.18406,0.20109 -0.33949,0.43275 -0.55218,0.60327 -0.83692,0.67096 -1.95974,0.98552 -2.66389,1.83023 -1.57543,1.88179 0.46521,-0.44229 -1.17471,1.09615 -0.77872,0.73053 -1.32228,1.73528 -2.27309,2.27672 -1.08884,1.31387 -2.37966,2.37965 -3.65473,3.49829 -1.31862,1.25195 -2.97424,2.12516 -4.41388,3.24406 -3.33095,2.6517 -9.75694,5.84368 -11.72327,6.98402 -0.24418,0.14161 -0.99089,0.54098 -0.74727,0.3984 2.9362,-1.71846 11.77011,-6.83041 8.82555,-5.12632 -3.45185,1.99767 -6.89828,4.0047 -10.34741,6.00706 -0.93983,0.44797 -1.90518,0.77733 -2.86238,1.18105 -3.58886,1.51368 -8.76725,5.63668 6.90988,-4.17248 -4.73287,2.90961 -9.40794,6.15603 -14.66615,8.03532 -1.6743,0.52043 -3.23109,1.3351 -4.9071,1.85808 -1.94792,0.39531 -3.94206,0.61501 -5.93141,0.5755 -2.26895,-0.002 -4.53791,10e-4 -6.80686,0.005 -2.27118,0.002 -4.54235,0.0127 -6.81352,0.004 -2.21488,-0.0214 -4.43804,-0.0317 -6.6371,-0.32946 -1.89234,-0.32251 -3.67373,-0.9223 -5.48089,-1.55019 -1.787,-0.3921 -3.38637,-1.11901 -4.9095,-2.13808 -1.3806,-1.01173 -2.8104,-1.93223 -3.94668,-3.23729 -1.21817,-1.32755 -2.62276,-2.48226 -3.83867,-3.81453 -1.09497,-1.2208 -2.28148,-2.37306 -3.23103,-3.71228 -1.08578,-1.35737 -1.84789,-2.88841 -2.82078,-4.32078 -1.02765,-1.76882 -1.92985,-3.59369 -2.84195,-5.4263 -0.83417,-1.71289 -1.44626,-3.53367 -2.47476,-5.15171 -0.5656,-1.6292 -1.37324,-3.16085 -2.07013,-4.73669 -0.42766,-1.63573 -1.208876,-3.12319 -1.958824,-4.63156 -0.758844,-1.59255 -1.115563,-3.35497 -1.908262,-4.93926 -0.824564,-1.48434 -1.50476,-3.01757 -2.267858,-4.53572 -0.824563,-1.48434 -1.504759,-3.01757 -2.267855,-4.53571 -0.824566,-1.48434 -1.504762,-3.01757 -2.267857,-4.53572 -0.824566,-1.48434 -1.504762,-3.01757 -2.267858,-4.53571 -0.824566,-1.48434 -1.504762,-3.01757 -2.267855,-4.53572 -0.82456,-1.48434 -1.504751,-3.01758 -2.267839,-4.53573 -0.824539,-1.4843 -1.504701,-3.0175 -2.267958,-4.53551 -0.824669,-1.48396 -1.505169,-3.01676 -2.269421,-4.53401 -0.826548,-1.48515 -1.510355,-3.01885 -2.267717,-4.54168 -0.826138,-1.51285 -1.501058,-3.07694 -2.166564,-4.66855 -0.253021,-0.5525 -0.556181,-1.08454 -0.760424,-1.65687 -0.378412,-1.06039 -0.562903,-2.19733 -1.180689,-3.17236 -0.623242,-1.61813 -1.286907,-3.21117 -1.943923,-4.80872 -0.840838,-1.36941 -1.677787,-2.73176 -2.618126,-4.03361 -1.124678,-1.33453 -1.976507,-2.82343 -2.572039,-4.467 -0.253775,-0.5519 -0.557763,-1.08326 -0.76245,-1.65519 -0.380148,-1.06221 -0.565652,-2.20249 -1.172289,-3.18512 -0.622461,-1.6991 -1.274786,-3.35065 -1.701046,-5.11342 -0.322109,-0.82944 -0.552855,-1.68587 -0.899258,-2.50564 -0.213659,-0.50563 -0.592023,-1.21595 -0.764198,-1.73098 -0.09237,-0.27631 -0.134903,-0.56686 -0.202354,-0.85029 -0.569177,-1.65723 -1.382024,-3.21656 -2.001739,-4.85635 -0.349655,-1.74504 -0.961308,-3.41588 -1.546924,-5.09204 -0.0553,-0.12964 -0.685972,-1.60058 -0.720447,-1.71215 -0.345334,-1.11767 -0.450265,-2.32321 -0.983755,-3.38936 -0.492813,-1.72976 -1.379794,-3.305228 -1.689889,-5.087874 -0.603755,-1.692476 -1.147603,-3.402798 -1.969436,-5.007885 -0.391171,-1.744792 -0.840214,-3.496813 -1.463194,-5.170411 -0.01627,-0.03555 -0.756597,-1.653209 -0.75955,-1.661588 -0.378671,-1.075344 -0.555117,-2.232565 -1.137382,-3.24017 -0.296948,-0.899213 -0.722485,-1.799 -0.93948,-2.720745 C 46.758399,79.117813 46.780063,78.195815 46.430231,77.365462 45.830693,75.701974 45.29179,74.017094 44.390976,72.48295 43.922227,70.875066 43.301443,69.285553 42.480502,67.825945 41.650599,66.272309 41.134344,64.562449 40.355723,62.978397 39.650291,61.317726 39.26822,59.52564 38.357638,57.939661 37.5399,56.231403 36.9624,54.44504 36.0485,52.781908 35.123752,51.400937 34.329666,49.954436 33.343709,48.61253 32.2723,47.10654 31.353355,45.492505 30.173988,44.053214 28.717589,41.768342 25.57603,32.879828 23.449482,31.222145 l 10.692536,1.164397 z"
       inkscape:connector-curvature="0"
       sodipodi:nodetypes="ccccccccccccccccccccccccccccccccccccccccccccccccccsccccscccccccccccccccccccccccccccccccccccccccscscccccccccccccccccccccccccccccccccccccccccccccccccccccccccccc" />
  </g>
</svg>
