<?xml version="1.0" encoding="UTF-8" standalone="no"?>
<!-- Created with Inkscape (http://www.inkscape.org/) -->

<svg
   width="113.77083mm"
   height="100.54171mm"
   viewBox="0 0 113.77083 100.54171"
   version="1.1"
   id="svg5"
   inkscape:version="1.1.1 (3bf5ae0d25, 2021-09-20)"
   sodipodi:docname="simplified_me.svg"
   xmlns:inkscape="http://www.inkscape.org/namespaces/inkscape"
   xmlns:sodipodi="http://sodipodi.sourceforge.net/DTD/sodipodi-0.dtd"
   xmlns="http://www.w3.org/2000/svg"
   xmlns:svg="http://www.w3.org/2000/svg">
  <sodipodi:namedview
     id="namedview7"
     pagecolor="#ffffff"
     bordercolor="#666666"
     borderopacity="1.0"
     inkscape:pageshadow="2"
     inkscape:pageopacity="0.0"
     inkscape:pagecheckerboard="0"
     inkscape:document-units="mm"
     showgrid="false"
     inkscape:zoom="0.62740847"
     inkscape:cx="205.60768"
     inkscape:cy="268.56507"
     inkscape:window-width="1920"
     inkscape:window-height="1137"
     inkscape:window-x="-8"
     inkscape:window-y="-8"
     inkscape:window-maximized="1"
     inkscape:current-layer="layer1" />
  <defs
     id="defs2" />
  <g
     inkscape:label="Layer 1"
     inkscape:groupmode="layer"
     id="layer1"
     transform="translate(-38.802123,109.47848)">
    <path
       style="fill:#ffdead;stroke:none;stroke-width:1"
       d="m 68.700042,-89.63469 c 0.49265,3.8264 1.50468,11.07943 -1.32292,14.2875 0.56303,-3.03239 -0.47546,-4.88077 -1.99628,-7.40834 -0.85349,-1.41869 -1.90984,-3.01836 -3.424,-1.04272 -1.08934,1.42108 -0.22132,3.13849 -0.4867,4.74689 -0.91816,5.56472 -1.58094,9.42658 1.29656,14.55209 1.03188,1.83806 1.4005,3.62585 3.81667,3.70416 v 0.52917 l -1.32292,0.26458 0.79375,1.32292 0.79375,-0.26458 c 0.63527,2.45559 0.97817,4.9948 1.76478,7.40833 1.19194,3.65681 2.96465,6.58733 1.85922,10.58307 -0.72257,2.61144 -3.08398,1.97062 -4.94691,2.55455 -1.36943,0.42916 -3.85683,1.77747 -4.99933,2.70193 -2.29592,1.85764 -3.52661,5.50836 -5.18959,7.89755 -3.60521,5.17921 -10.388949,7.60571 -16.533999,7.48374 v 11.3770802 l 16.139579,-0.0728 6.60009,-3.6748002 2.64747,3.3234302 3.18786,0.42413 -2.38125,-5.0270802 1.32292,0.79375 0.52916,-1.85209 0.79375,0.26459 -1.32291,-3.96875 0.26458,-0.26459 0.79375,0.26459 -1.72058,-4.49792 0.13308,-4.49792 -1.05833,3.43959 h -0.52917 l 1.5875,-7.40834 c -1.31384,0.98663 -1.72376,3.72057 -1.85208,5.29167 h -0.52917 c 0.59748,-4.06109 2.30241,-10.4521 6.61458,-11.90625 -0.20372,4.67042 -3.17235,8.43703 -2.59715,13.22917 0.6821,5.68086 4.93078,10.37643 4.9784,16.1395802 h 26.458341 c -0.64453,-3.2660202 -1.96665,-4.2730202 -5.02709,-5.0270802 v 1.05833 c -1.81371,-1.35599 -3.70469,-1.21999 -3.175,-3.96875 l 0.79375,0.52917 0.52917,-3.70417 -1.5875,-0.52917 c 0.0265,-1.44674 -1.31921,-3.60415 -2.64583,-4.23333 l 0.79375,-1.05833 c -1.43193,-1.08665 -2.07487,-2.87073 -3.48457,-4.04707 -3.8936,-3.24935 -7.77266,-5.56631 -10.273771,-10.24044 3.618451,2.91995 6.539451,7.13979 11.640611,7.66525 1.5494,0.15981 3.73486,-0.26617 5.29273,-0.48975 2.6961,-0.38708 9.225747,-1.40202 7.14375,-5.588 l -0.79375,0.26459 c -1.61793,-2.40321 -5.93275,-1.72561 -6.58469,-5.28955 -0.29633,-1.61978 4.39129,-2.01772 5.53667,-2.50772 0.50906,-0.21776 2.26854,-0.91811 1.40203,-1.72562 -0.9054,-0.84349 -3.14219,-0.64928 -4.32276,-1.32503 l 1.05833,-0.26458 c -0.53763,-1.06548 -1.63751,-1.7026 -2.11667,-0.26459 h -1.5875 l 0.52917,-1.05833 c -2.71648,-0.53155 -6.67385,-0.73872 -9.26042,0.52917 v -3.70417 l 0.79375,0.52917 h 0.26459 c 1.74307,-1.21285 2.90803,0.2958 4.7625,0.48207 1.52109,0.15266 2.98053,-0.4744 4.49791,-0.4744 2.11958,0 3.93409,0.5289 6.08542,0.25691 v -0.79375 c -3.2893,-0.01 -3.39698,-2.29394 -5.67902,-4.07511 -0.98689,-0.7702 -2.67652,-1.25624 -3.84598,-1.74572 v -0.26459 c 4.4159,-1.05145 10.09782,2.96572 11.641667,-3.70416 -3.544097,-4.26376 0.26511,-9.50437 -0.62151,-14.01789 -0.40084,-2.04047 -3.972187,-2.62785 -5.332937,-1.24381 -2.02327,2.05819 -2.75352,4.72308 -5.42264,6.26586 l -0.26458,-0.79375 -7.9375,-1.05833 v -0.52917 l 4.23333,-0.79375 c -0.57811,-1.1721 -1.43324,-1.49701 -2.64583,-1.85208 0.081,-0.77523 -0.31962,-1.2409 -0.52917,-0.26459 l -5.29166,-1.5875 5.82083,-1.5875 h 0.26458 0.26459 l 1.32291,1.05834 v -0.79375 l 2.64584,0.52916 0.26458,-0.79375 2.38125,-0.26458 c -0.79454,-3.64014 -5.89571,-4.25741 -8.99583,-5.02708 l -0.52917,-2.38125 1.85208,1.32291 h 0.26459 v -0.79375 c 3.88117,0.92393 8.49656,-0.0333 12.2084,1.97962 0.60352,0.32729 0.80513,1.04272 1.36446,1.42319 1.61157,1.09643 3.490647,0.66067 3.36047,3.21178 3.084247,-0.66755 7.143217,-2.28706 10.042787,-3.54171 0.87392,-0.37809 1.41446,-1.06098 1.53828,-2.0156 0.28232,-2.18017 -1.94865,-3.74915 -2.0058,-5.81978 -0.0873,-3.16388 2.49184,-5.09428 -1.15358,-7.44696 -4.02961,-2.60059 -11.137637,1.47347 -14.242517,-3.66554 l -4.49765,-0.77311 -3.43985,-2.1373 c 0.51937,-2.46275 -1.49596,-0.96467 -2.91042,-1.32292 v -1.05833 l -0.52917,0.52916 c -1.80869,-0.76597 -3.73644,1.73011 -5.02708,2.86544 -2.897981,2.54953 -4.902731,6.19707 -6.279881,9.8343 -0.74878,1.97749 -1.34488,5.0591 -2.71595,6.61485 m 15.610411,-17.99167 -0.26458,1.32292 h -0.26458 v -1.32292 h 0.52916 m -21.431251,24.87083 c 0.75256,1.05119 0.99127,1.95263 -0.26458,2.64584 -0.47763,-1.03876 -0.49988,-1.76266 0.26458,-2.64584 m 47.624998,4.08888 c -1.05013,0.14314 -2.34712,0.46407 -3.08954,1.27529 -0.90699,0.9906 -0.21352,1.83382 0.9742,1.68857 1.1086,-0.13573 3.78724,-0.3683 4.67571,-0.97473 1.94628,-1.32741 -1.68804,-2.10767 -2.56037,-1.98913 m -44.185408,2.26112 0.52916,1.85209 c -0.98451,-0.39608 -1.1721,-0.99563 -0.52916,-1.85209 m 40.481238,4.23334 c 1.60391,0.13097 3.56368,0.91625 5.02709,0 -1.48061,-1.02897 -5.32792,-2.66541 -5.55625,0.26458 h -0.26459 v -2.64583 c -2.45215,0.39211 -1.125,3.69385 -0.54927,5.29167 0.55298,1.53379 0.17648,3.31099 0.74639,4.75324 0.51064,1.29169 1.96268,2.27435 2.72997,3.44884 0.83132,1.27212 1.76477,3.06493 3.43217,3.34354 1.12025,0.18732 1.57401,-0.61833 2.40216,-1.1729 2.94084,-1.96929 4.24153,-6.50028 0.23336,-8.48386 -2.59715,-1.28535 -6.30582,-2.51222 -8.20103,-4.79928 m -39.422908,-1.85208 -0.26458,0.26458 0.26458,-0.26458 m 20.902081,2.64583 -0.52916,0.52917 v -0.52917 h 0.52916 m -21.960411,1.85208 -0.26459,0.26459 0.26459,-0.26459 m 22.225001,4.49792 c -0.81995,3.1414 -4.92125,6.67967 -8.20209,5.29167 0.58315,-3.22184 4.96941,-6.10818 8.20209,-5.29167 m 7.40833,15.34583 v 0.52917 h 1.5875 v -0.52917 h -1.5875 m -1.85208,0.26459 v 0.26458 h -0.79375 l 0.79375,-0.26458 m 17.727077,0.26458 v 0.79375 h 0.52916 v -0.79375 h -0.52916 m -1.85209,1.85208 0.26459,1.05834 1.32291,-1.5875 -1.5875,0.52916 m -1.5875,-0.26458 0.52917,0.52917 v -0.52917 h -0.52917 m 0.79375,1.5875 0.52917,0.79375 -0.52917,-0.79375 m -1.05833,0.26458 v 0.52917 h 0.52917 l -0.52917,-0.52917 m -34.660408,3.43959 1.05833,1.85208 -1.05833,-1.85208 m 40.481238,6.08541 0.26459,0.26459 -0.26459,-0.26459 m 0.52917,0 v 0.52917 h 0.79375 v -0.52917 h -0.79375 m 1.32292,0.26459 v 0.52916 h 0.52916 v -0.52916 h -0.52916 m 1.05833,0.26458 c 0.96732,1.41896 2.97233,1.93807 4.06559,3.43985 1.66661,2.28891 2.55164,7.00749 4.93024,8.4664 0.75169,-1.14141 1.83568,-0.33046 2.91042,0 -0.82074,-1.75974 -2.51566,-2.862 -3.81635,-4.25714 -2.65086,-2.84269 -4.05897,-6.69423 -8.0899,-7.64911 m -24.341657,0.88186 c 0.20452,0 0.0423,0.13176 -0.0881,0.0884 l 0.0881,-0.0884 m -2.11667,1.23481 -0.26458,0.26458 0.26458,-0.26458 m 23.724387,2.99852 0.17621,0.0884 -0.17621,-0.0884 m 1.41102,0.44106 2.38125,2.64584 c 0.46779,-1.7399 -0.88,-2.286 -2.38125,-2.64584 m -51.858328,4.7625 v 0.52917 h -0.52916 v -0.52917 h 0.52916 m -0.26458,1.5875 v 0.52917 h -0.52917 v -0.52917 h 0.52917 m 1.05833,0.26459 v 0.52916 h -0.52916 v -0.52916 h 0.52916 m 64.293748,0.52916 0.52917,2.11667 4.23333,2.11667 v -0.52917 l 1.5875,0.79375 c -0.0394,1.2155 0.48604,1.50177 1.5875,1.85208 v 0.26459 h -1.05833 c 0.17304,0.80803 0.53102,0.77681 1.32291,0.79375 l -0.79375,1.32291 h 1.32292 v 0.26459 l -0.79375,0.79375 1.5875,0.26458 v 0.26458 c -1.75842,1.0795 -0.85169,2.8987802 1.05833,2.6458402 l -1.05833,0.79375 v 0.26458 h 2.11667 l -2.11667,-5.8208302 3.96875,2.11666 v 0.26459 l -1.85208,-0.52917 1.05833,3.9687502 h 7.67292 v -0.26458 l -1.32292,-0.52917 v -0.26458 l 4.7625,1.05833 c -1.98358,-2.3135202 -5.84385,-2.9027402 -8.46667,-4.3150902 -5.31098,-2.86015 -9.70624,-7.57026 -15.34583,-9.70783 m -64.822908,3.43959 v 1.05833 h -0.52917 v -1.05833 h 0.52917 m 53.181238,0.52916 -3.27025,7.40331 -2.81516,2.6508602 h 4.23333 l 1.05833,-2.9104202 h 0.26459 l -0.26459,2.9104202 h 2.91042 v -1.05833 h 0.26458 l 0.52917,1.05833 h 3.70417 c -0.68289,-0.91281 -1.88728,-1.8756302 -0.26459,-2.3812502 l -1.32291,-1.5875 h 1.05833 v -0.52917 l -2.11667,0.52917 v 0.79375 l 0.79375,0.26458 v 1.5875 h -1.85208 c 0.87921,-1.23243 0.64902,-2.44263 -1.05833,-2.38125 v 0.26459 l 1.05833,0.52916 -0.26458,0.79375 c -1.24857,-0.59293 -1.77456,-1.50151 -3.175,-0.79375 l 1.05833,-7.14375 h -0.52917 m -51.593738,1.05834 0.52916,0.79375 -0.26458,0.26458 -0.79375,-0.79375 0.52917,-0.26458 m 57.061888,0.61727 0.17621,0.0884 -0.17621,-0.0884 m 1.6756,0.97023 c 0.30242,1.30995 -0.18018,2.91359 1.05834,3.70416 -8e-4,-1.32873 0.18282,-2.92206 -1.05834,-3.70416 m -57.679158,0.26458 v 0.79375 l -0.52917,-0.79375 h 0.52917 m -1.05833,0.26458 v 0.52917 h -0.52917 v -0.52917 h 0.52917 m 69.056238,0 0.26459,1.32292 h 0.26458 l -0.52917,-1.32292 m 3.43959,0 v 0.26459 h -0.79375 l 0.79375,-0.26459 m -16.66875,0.26459 v 1.5875 l 1.05833,-1.05834 -1.05833,-0.52916 m -59.002078,0.26458 0.26458,0.52917 h -0.52917 l 0.26459,-0.52917 m 60.413098,0.44106 0.0884,0.17621 -0.0884,-0.17621 m 17.0217,0 -0.0884,0.17621 0.0884,-0.17621 m -5.73272,1.14644 1.32291,1.32292 v 1.32291 l -1.32291,-0.26458 -0.52917,2.3812502 h 4.23333 l -2.11666,-2.9103802 c 0.0423,-1.14802 -0.5596,-1.48722 -1.5875,-1.85208 m 4.7625,0 0.79375,0.79375 -0.79375,-0.79375 m -98.424997,0.79375 c -1.3e-4,1.18983 0.23792,2.6543 -0.79375,3.4395802 l 0.26458,-3.4395802 h 0.52917 m 102.922907,0.79375 v 0.26458 l -1.05833,-0.26458 h 1.05833 m -77.787488,0 1.05833,1.85208 h -0.26458 l -0.79375,-1.85208 m 52.122908,0.26458 0.26458,1.05834 h -0.26458 v -1.05834 m 7.14375,0 v 1.5875 h 0.52917 v -1.5875 h -0.52917 m 21.96042,1.32292 v 0.26458 l -3.175,-1.32291 3.175,1.05833 m -99.483327,-1.05833 -1.5875,2.3812502 c 0.0421,-1.2853502 0.37272,-1.8949502 1.5875,-2.3812502 m 91.281237,0 -0.52916,0.79375 -0.26459,-0.26459 0.26459,-0.52916 h 0.52916 m -70.643738,1.32291 -0.26459,1.3229202 h 1.05834 l -0.79375,-1.3229202 m -2.38125,0.2645902 v 0.52916 h -0.52917 v -0.52916 h 0.52917 m 60.589578,0.79375 v 0.26458 h 1.5875 z"
       id="path3365" />
  </g>
</svg>
