<?xml version="1.0" encoding="UTF-8" standalone="no"?>
<!-- Created with Inkscape (http://www.inkscape.org/) -->

<svg
   xmlns:dc="http://purl.org/dc/elements/1.1/"
   xmlns:cc="http://creativecommons.org/ns#"
   xmlns:rdf="http://www.w3.org/1999/02/22-rdf-syntax-ns#"
   xmlns:svg="http://www.w3.org/2000/svg"
   xmlns="http://www.w3.org/2000/svg"
   xmlns:sodipodi="http://sodipodi.sourceforge.net/DTD/sodipodi-0.dtd"
   xmlns:inkscape="http://www.inkscape.org/namespaces/inkscape"
   width="99.999992mm"
   height="100.00001mm"
   viewBox="0 0 99.999994 100.00001"
   version="1.1"
   id="svg3172"
   inkscape:version="0.92.3 (2405546, 2018-03-11)"
   sodipodi:docname="learn.svg">
  <defs
     id="defs3166" />
  <sodipodi:namedview
     id="base"
     pagecolor="#ffffff"
     bordercolor="#666666"
     borderopacity="1.0"
     inkscape:pageopacity="0.0"
     inkscape:pageshadow="2"
     inkscape:zoom="0.35"
     inkscape:cx="626.88055"
     inkscape:cy="95.178523"
     inkscape:document-units="mm"
     inkscape:current-layer="layer1"
     showgrid="false"
     inkscape:window-width="1920"
     inkscape:window-height="1017"
     inkscape:window-x="1912"
     inkscape:window-y="-8"
     inkscape:window-maximized="1" />
  <metadata
     id="metadata3169">
    <rdf:RDF>
      <cc:Work
         rdf:about="">
        <dc:format>image/svg+xml</dc:format>
        <dc:type
           rdf:resource="http://purl.org/dc/dcmitype/StillImage" />
        <dc:title></dc:title>
      </cc:Work>
    </rdf:RDF>
  </metadata>
  <g
     inkscape:label="Layer 1"
     inkscape:groupmode="layer"
     id="layer1"
     transform="translate(-57.263874,-57.499187)">
    <path
       style="fill:#000000;stroke-width:2.86576939"
       d="m 93.653291,147.31049 c 9.931679,-10.87637 10.072689,-15.09226 0.504743,-15.09226 -5.97431,0 -17.680589,-6.82526 -17.680589,-10.30853 0,-4.14536 6.650944,-2.80948 8.808603,1.76922 1.203787,2.55455 5.247345,4.26966 10.066111,4.26966 10.862371,0 10.159681,-4.61857 -1.563335,-10.27505 -5.289578,-2.55229 -9.617447,-5.53893 -9.617447,-6.637 0,-4.2218 12.624623,-8.70591 24.510723,-8.70591 13.83303,0 21.65296,3.21104 21.65296,8.89117 0,4.40765 -13.55183,9.06916 -19.96811,6.86857 -2.97771,-1.02128 -3.57978,-0.2995 -1.84398,2.21071 1.41746,2.04988 2.57723,4.60915 2.57723,5.68728 0,4.72452 15.83158,1.61902 19.93556,-3.91055 3.58521,-4.83056 4.65053,-5.18068 6.01244,-1.976 1.83866,4.32651 -8.95247,12.11643 -16.78457,12.11643 -2.76758,0 -9.8566,5.48646 -15.75338,12.19213 -5.896783,6.70567 -13.00841,12.57255 -15.803589,13.03747 -3.229201,0.53714 -1.425678,-3.15895 4.94663,-10.13734 z M 121.96144,110.0953 c 0.96261,-2.70476 -1.81315,-3.49503 -12.27559,-3.49503 -15.828962,0 -21.852877,3.75811 -12.262092,7.64985 8.197712,3.32649 22.752292,0.86203 24.537682,-4.15482 z m -64.697406,11.9825 c 0.04781,-13.08516 7.636325,-22.091501 21.279001,-25.254791 14.870269,-3.44793 46.709175,-3.99845 60.686945,-1.04933 10.81704,2.28226 18.03389,11.868281 18.03389,23.954141 0,12.66049 -6.51545,9.73153 -8.54362,-3.84074 -2.27147,-15.20023 -8.14203,-17.826121 -39.85261,-17.826121 -31.288239,0 -39.474429,3.585621 -42.647053,18.679751 -2.453128,11.67118 -8.993939,15.56874 -8.956553,5.33709 z m 7.678691,-35.749357 c -4.88484,-7.129914 -4.888426,-22.502039 -0.0067,-26.694427 2.985893,-2.563986 3.740916,-2.195231 3.788063,1.85011 0.04648,3.995058 1.66902,4.818699 7.752866,3.935815 4.231649,-0.614097 7.693931,-0.155858 7.693931,1.018288 0,1.174158 -3.462282,2.637275 -7.693931,3.251373 -4.231682,0.614096 -7.693964,2.549651 -7.693964,4.301228 0,2.386438 2.579031,2.825482 10.289231,1.7516 9.015686,-1.255707 9.671633,-1.020112 5.299438,1.903399 -2.744412,1.835067 -7.320238,3.336487 -10.168507,3.336487 -3.140085,0 -4.260203,1.32827 -2.845414,3.374244 1.43129,2.069837 5.187414,2.960052 9.71639,2.302814 4.56593,-0.662608 6.81732,-0.117296 5.900336,1.429122 -0.815485,1.375305 -5.239409,2.807333 -9.830905,3.182293 -6.072458,0.49589 -9.398511,-0.85137 -12.201326,-4.942346 z m 26.922616,3.951036 c 0,-1.12131 1.814013,-3.045406 4.031139,-4.275774 2.810219,-1.559491 2.638895,-3.932717 -0.565604,-7.835649 -3.61727,-4.405679 -3.556145,-6.294415 0.286869,-8.864084 3.938438,-2.633471 3.941826,-3.895211 0.01661,-6.519301 -7.048111,-4.712781 -1.262422,-6.619992 7.195955,-2.372099 6.4493,3.238932 7.66063,3.268044 12.11267,0.291126 2.72071,-1.819231 5.81231,-2.827355 6.87028,-2.240277 1.0579,0.587077 -0.26629,2.531642 -2.94277,4.32125 -3.87784,2.592953 -3.89676,3.902065 -0.0929,6.445393 3.83761,2.566036 3.60642,4.179685 -1.17968,8.233212 -5.39619,4.570263 -5.37022,5.36493 0.27758,8.499177 3.42676,1.901639 4.8936,4.199391 3.25967,5.106116 -1.63391,0.90673 -5.39841,-0.1938 -8.36551,-2.445593 -5.22705,-3.96698 -5.63563,-3.973178 -13.149774,-0.199482 -4.26535,2.142095 -7.755156,2.977285 -7.755156,1.855985 z M 113.65523,75.501745 c 3.41672,-4.94109 -4.14387,-8.20839 -9.97381,-4.310159 -4.928404,3.295426 -2.69597,7.6559 3.91958,7.6559 2.05738,0 4.78178,-1.505586 6.05423,-3.345741 z m 14.92635,12.037688 c -1.21419,-1.09021 1.57754,-2.291051 6.20384,-2.668537 10.90219,-0.889576 14.13351,-6.02341 3.79119,-6.02341 -4.28309,0 -8.85736,-0.960673 -10.16503,-2.134831 -1.34845,-1.210785 1.88354,-2.134829 7.46692,-2.134829 6.18596,0 9.84444,-1.190044 9.84444,-3.202246 0,-1.761235 -3.36009,-3.202244 -7.46689,-3.202244 -4.1068,0 -8.5368,-0.960673 -9.84447,-2.13483 -1.34845,-1.210786 1.88354,-2.134829 7.46692,-2.134829 6.18596,0 9.84444,-1.190045 9.84444,-3.202247 0,-1.761235 1.73114,-3.202243 3.847,-3.202243 6.55638,0 4.64953,24.867609 -2.1983,28.667715 -6.75321,3.747617 -15.43838,4.382027 -18.79006,1.372531 z"
       id="path3732"
       inkscape:connector-curvature="0" />
  </g>
</svg>
