<?xml version="1.0" encoding="UTF-8" standalone="no"?>
<!-- Created with Inkscape (http://www.inkscape.org/) -->

<svg
   xmlns:dc="http://purl.org/dc/elements/1.1/"
   xmlns:cc="http://creativecommons.org/ns#"
   xmlns:rdf="http://www.w3.org/1999/02/22-rdf-syntax-ns#"
   xmlns:svg="http://www.w3.org/2000/svg"
   xmlns="http://www.w3.org/2000/svg"
   xmlns:sodipodi="http://sodipodi.sourceforge.net/DTD/sodipodi-0.dtd"
   xmlns:inkscape="http://www.inkscape.org/namespaces/inkscape"
   version="1.1"
   id="svg2"
   xml:space="preserve"
   width="516"
   height="393.33334"
   viewBox="0 0 516 393.33334"
   sodipodi:docname="Brady_2017_ellipse_labeled.svg"
   inkscape:version="0.92.3 (2405546, 2018-03-11)"><metadata
     id="metadata8"><rdf:RDF><cc:Work
         rdf:about=""><dc:format>image/svg+xml</dc:format><dc:type
           rdf:resource="http://purl.org/dc/dcmitype/StillImage" /><dc:title></dc:title></cc:Work></rdf:RDF></metadata><defs
     id="defs6" /><sodipodi:namedview
     pagecolor="#ffffff"
     bordercolor="#666666"
     borderopacity="1"
     objecttolerance="10"
     gridtolerance="10"
     guidetolerance="10"
     inkscape:pageopacity="0"
     inkscape:pageshadow="2"
     inkscape:window-width="1920"
     inkscape:window-height="1018"
     id="namedview4"
     showgrid="false"
     inkscape:zoom="2.1584745"
     inkscape:cx="258"
     inkscape:cy="201.84978"
     inkscape:window-x="-8"
     inkscape:window-y="-8"
     inkscape:window-maximized="1"
     inkscape:current-layer="g10" /><g
     id="g10"
     inkscape:groupmode="layer"
     inkscape:label="ink_ext_XXXXXX"
     transform="matrix(1.3333333,0,0,-1.3333333,0,393.33333)"><g
       id="g12"
       transform="scale(0.1)"><path
         d="M 0,0 H 4180 V 3130 H 0 Z"
         style="fill:#ffffff;fill-opacity:1;fill-rule:nonzero;stroke:none"
         id="path14"
         inkscape:connector-curvature="0" /><path
         d="M 0,0 H 4180 V 3130 H 0 Z"
         style="fill:#ffffff;fill-opacity:1;fill-rule:nonzero;stroke:none"
         id="path16"
         inkscape:connector-curvature="0" /><path
         d="m 572.5,535 h 3210 v 2362.5 h -3210 z"
         style="fill:#ffffff;fill-opacity:1;fill-rule:nonzero;stroke:none"
         id="path18"
         inkscape:connector-curvature="0" /><path
         d="m 572.5,535 h 3210"
         style="fill:none;stroke:#262626;stroke-width:15;stroke-linecap:square;stroke-linejoin:round;stroke-miterlimit:10;stroke-dasharray:none;stroke-opacity:1"
         id="path20"
         inkscape:connector-curvature="0" /><path
         d="m 572.5,2897.5 h 3210"
         style="fill:none;stroke:#262626;stroke-width:15;stroke-linecap:square;stroke-linejoin:round;stroke-miterlimit:10;stroke-dasharray:none;stroke-opacity:1"
         id="path22"
         inkscape:connector-curvature="0" /><path
         d="m 572.5,535 v 32.078"
         style="fill:none;stroke:#262626;stroke-width:15;stroke-linecap:square;stroke-linejoin:round;stroke-miterlimit:10;stroke-dasharray:none;stroke-opacity:1"
         id="path24"
         inkscape:connector-curvature="0" /><path
         d="m 1642.5,535 v 32.078"
         style="fill:none;stroke:#262626;stroke-width:15;stroke-linecap:square;stroke-linejoin:round;stroke-miterlimit:10;stroke-dasharray:none;stroke-opacity:1"
         id="path26"
         inkscape:connector-curvature="0" /><path
         d="m 2712.5,535 v 32.078"
         style="fill:none;stroke:#262626;stroke-width:15;stroke-linecap:square;stroke-linejoin:round;stroke-miterlimit:10;stroke-dasharray:none;stroke-opacity:1"
         id="path28"
         inkscape:connector-curvature="0" /><path
         d="m 3782.5,535 v 32.078"
         style="fill:none;stroke:#262626;stroke-width:15;stroke-linecap:square;stroke-linejoin:round;stroke-miterlimit:10;stroke-dasharray:none;stroke-opacity:1"
         id="path30"
         inkscape:connector-curvature="0" /><path
         d="m 572.5,2897.5 v -32.08"
         style="fill:none;stroke:#262626;stroke-width:15;stroke-linecap:square;stroke-linejoin:round;stroke-miterlimit:10;stroke-dasharray:none;stroke-opacity:1"
         id="path32"
         inkscape:connector-curvature="0" /><path
         d="m 1642.5,2897.5 v -32.08"
         style="fill:none;stroke:#262626;stroke-width:15;stroke-linecap:square;stroke-linejoin:round;stroke-miterlimit:10;stroke-dasharray:none;stroke-opacity:1"
         id="path34"
         inkscape:connector-curvature="0" /><path
         d="m 2712.5,2897.5 v -32.08"
         style="fill:none;stroke:#262626;stroke-width:15;stroke-linecap:square;stroke-linejoin:round;stroke-miterlimit:10;stroke-dasharray:none;stroke-opacity:1"
         id="path36"
         inkscape:connector-curvature="0" /><path
         d="m 3782.5,2897.5 v -32.08"
         style="fill:none;stroke:#262626;stroke-width:15;stroke-linecap:square;stroke-linejoin:round;stroke-miterlimit:10;stroke-dasharray:none;stroke-opacity:1"
         id="path38"
         inkscape:connector-curvature="0" /><g
         id="g40"
         transform="scale(10)"><text
           transform="matrix(1,0,0,-1,52.75,31.8)"
           style="font-variant:normal;font-weight:normal;font-size:15.99979973px;font-family:Helvetica;-inkscape-font-specification:Helvetica;writing-mode:lr-tb;fill:#262626;fill-opacity:1;fill-rule:nonzero;stroke:none"
           id="text44"><tspan
             x="0 102.50032 111.39621 209.50058 218.39647 316.50085 325.39673"
             y="0"
             sodipodi:role="line"
             id="tspan42">0102030</tspan></text>
</g><path
         d="m 1815.5,70.7344 c 0,0.9414 0.08,1.6445 0.23,2.1094 l 34.81,138.7502 c 0.62,2.734 1.01,4.883 1.17,6.449 0,2.574 -5.19,3.863 -15.58,3.863 -1.65,0 -2.47,1.055 -2.47,3.164 0.08,0.391 0.25,1.094 0.53,2.114 0.27,1.015 0.62,1.796 1.05,2.339 0.43,0.547 1.04,0.821 1.82,0.821 l 32.34,2.578 h 0.71 c 0,-0.156 0.27,-0.371 0.82,-0.645 0.54,-0.269 0.86,-0.445 0.93,-0.523 0.32,-0.781 0.48,-1.406 0.48,-1.875 l -18.75,-74.883 c 9.84,11.641 21.52,17.461 35.04,17.461 5.62,0 10.48,-0.977 14.58,-2.934 4.1,-1.953 7.31,-4.902 9.61,-8.847 2.31,-3.946 3.46,-8.653 3.46,-14.117 0,-6.563 -1.47,-14.493 -4.4,-23.789 -2.93,-9.301 -6.58,-19.692 -10.95,-31.1762 -2.27,-5.2305 -3.4,-10.0352 -3.4,-14.4102 0,-4.7695 1.83,-7.1523 5.51,-7.1523 6.25,0 11.46,3.3398 15.64,10.0195 4.18,6.6797 7.12,13.8867 8.85,21.6212 0.31,0.941 0.93,1.41 1.87,1.41 h 2.94 c 0.62,0 1.12,-0.215 1.52,-0.644 0.39,-0.43 0.58,-0.922 0.58,-1.469 0,-0.156 -0.08,-0.391 -0.23,-0.699 -1.41,-5.7856 -3.5,-11.4692 -6.27,-17.0552 -2.78,-5.5859 -6.27,-10.2343 -10.49,-13.9414 -4.22,-3.7109 -9.18,-5.5664 -14.88,-5.5664 -5.63,0 -10.43,1.9336 -14.42,5.7969 -3.98,3.8711 -5.97,8.5781 -5.97,14.125 0,2.9688 0.62,6.0938 1.87,9.375 4.54,12.0271 8.31,22.7691 11.31,32.2261 3.01,9.45 4.52,17.77 4.52,24.961 0,4.61 -0.91,8.438 -2.7,11.481 -1.8,3.051 -4.81,4.574 -9.03,4.574 -8.6,0 -16.1,-2.637 -22.5,-7.91 -6.4,-5.277 -11.95,-12.25 -16.64,-20.918 l -16.28,-65.5117 c -0.63,-2.4219 -1.84,-4.3946 -3.64,-5.918 -1.8,-1.5195 -3.87,-2.2813 -6.21,-2.2813 -2.03,0 -3.77,0.6836 -5.21,2.0469 -1.45,1.3711 -2.17,3.0313 -2.17,4.9805"
         style="fill:#262626;fill-opacity:1;fill-rule:nonzero;stroke:none"
         id="path46"
         inkscape:connector-curvature="0" /><path
         d="m 2095.41,6.87109 c -8.9,7.03121 -16.57,15.09771 -23.02,24.19531 -6.44,9.1016 -11.72,18.8086 -15.83,29.125 -4.1,10.3086 -7.16,21.0899 -9.19,32.3399 -2.03,11.2497 -3.05,22.5387 -3.05,33.8667 0,11.489 1.02,22.856 3.05,34.106 2.03,11.25 5.13,22.07 9.31,32.457 4.18,10.391 9.52,20.117 16,29.184 6.49,9.058 14.06,16.992 22.73,23.789 0,0.312 0.39,0.464 1.18,0.464 h 2.22 c 0.47,0 0.9,-0.214 1.29,-0.644 0.39,-0.43 0.59,-0.918 0.59,-1.461 0,-0.707 -0.16,-1.215 -0.47,-1.523 -7.81,-7.661 -14.32,-15.864 -19.51,-24.614 -5.2,-8.75 -9.38,-18.066 -12.54,-27.945 -3.17,-9.887 -5.46,-20.121 -6.86,-30.707 -1.4,-10.586 -2.11,-21.617 -2.11,-33.106 0,-50.8589 13.6,-89.4917 40.78,-115.8941 0.47,-0.4726 0.71,-1.13671 0.71,-1.99609 0,-0.39062 -0.22,-0.83984 -0.65,-1.34375 -0.43,-0.50781 -0.84,-0.76562 -1.23,-0.76562 h -2.22 c -0.79,0 -1.18,0.16015 -1.18,0.47265"
         style="fill:#262626;fill-opacity:1;fill-rule:nonzero;stroke:none"
         id="path48"
         inkscape:connector-curvature="0" /><path
         d="m 2121.01,21.2813 c 0,0.9375 0.08,1.5625 0.24,1.875 l 35.27,141.6797 c 0.7,2.266 1.97,4.102 3.82,5.508 1.83,1.41 3.92,2.113 6.26,2.113 2.03,0 3.75,-0.605 5.16,-1.816 1.4,-1.215 2.1,-2.836 2.1,-4.868 0,-0.468 -0.02,-0.839 -0.06,-1.109 -0.03,-0.273 -0.09,-0.57 -0.17,-0.883 l -14.18,-56.133 c -1.56,-6.636 -2.34,-12.3824 -2.34,-17.2261 0,-5.9336 1.41,-10.8164 4.21,-14.6485 2.82,-3.8281 7.08,-5.7421 12.78,-5.7421 11.64,0 21.88,7.2656 30.7,21.8007 0.08,0.1563 0.14,0.2735 0.18,0.3516 0.04,0.0781 0.06,0.1914 0.06,0.3477 l 17.34,69.6137 c 0.55,2.109 1.8,3.925 3.75,5.445 1.96,1.523 4.07,2.289 6.33,2.289 1.88,0 3.54,-0.625 4.98,-1.875 1.45,-1.25 2.17,-2.891 2.17,-4.922 0,-0.941 -0.08,-1.566 -0.23,-1.875 l -17.23,-69.1406 c -1.18,-4.5312 -1.76,-8.4375 -1.76,-11.7226 0,-6.875 2.34,-10.3125 7.03,-10.3125 5,0 8.77,3.0859 11.31,9.2617 2.54,6.1679 4.74,13.6289 6.62,22.379 0.31,0.941 0.98,1.41 1.99,1.41 h 2.81 c 0.63,0 1.15,-0.254 1.59,-0.766 0.43,-0.503 0.64,-1.031 0.64,-1.582 -2.81,-11.1676 -5.88,-20.1324 -9.2,-26.8942 -3.32,-6.7539 -8.73,-10.1328 -16.23,-10.1328 -5.31,0 -10.02,1.5235 -14.11,4.5664 -4.11,3.0469 -6.79,7.1485 -8.04,12.3086 -3.98,-5 -8.65,-9.0625 -14,-12.1875 -5.35,-3.125 -11,-4.6875 -16.94,-4.6875 -10,0 -17.84,2.3438 -23.55,7.0274 l -12.18,-48.5156 c -0.47,-2.2657 -1.65,-4.1016 -3.52,-5.5079 -1.88,-1.4023 -3.98,-2.1054 -6.33,-2.1054 -1.96,0 -3.65,0.6054 -5.1,1.8125 -1.45,1.2109 -2.17,2.832 -2.17,4.8633"
         style="fill:#262626;fill-opacity:1;fill-rule:nonzero;stroke:none"
         id="path50"
         inkscape:connector-curvature="0" /><path
         d="m 2266.09,66.3984 v 8.4375 c 5.47,0 9.96,0.4297 13.48,1.293 3.52,0.8594 5.27,2.9688 5.27,6.3281 v 65.504 c 0,4.297 -0.64,7.402 -1.93,9.316 -1.28,1.914 -3.14,3.086 -5.57,3.516 -2.42,0.434 -6.17,0.648 -11.25,0.648 v 8.438 l 34.81,2.578 V 149.02 c 3.21,6.875 7.95,12.5 14.23,16.875 6.3,4.375 13.15,6.562 20.58,6.562 18.43,0 29.25,-7.5 32.46,-22.5 3.2,6.715 7.88,12.145 14.06,16.289 6.17,4.141 12.93,6.211 20.27,6.211 7.27,0 13.38,-1.172 18.34,-3.516 4.96,-2.347 8.69,-5.921 11.19,-10.726 2.5,-4.805 3.75,-10.84 3.75,-18.106 V 82.457 c 0,-3.3593 1.77,-5.4687 5.33,-6.3281 3.56,-0.8633 8.03,-1.293 13.42,-1.293 v -8.4375 h -54.96 v 8.4375 c 5.47,0 9.96,0.4297 13.48,1.293 3.51,0.8594 5.27,2.9688 5.27,6.3281 v 56.949 c 0,8.047 -1.13,14.535 -3.4,19.453 -2.26,4.926 -6.91,7.387 -13.94,7.387 -9.22,0 -16.84,-3.711 -22.85,-11.137 -6.02,-7.418 -9.02,-15.855 -9.02,-25.312 v -47.34 c 0,-3.3593 1.75,-5.4687 5.27,-6.3281 3.51,-0.8633 8,-1.293 13.48,-1.293 v -8.4375 h -54.97 v 8.4375 c 5.47,0 9.96,0.4297 13.48,1.293 3.52,0.8594 5.27,2.9688 5.27,6.3281 v 56.949 c 0,7.813 -1.13,14.242 -3.39,19.282 -2.27,5.039 -6.92,7.558 -13.95,7.558 -9.3,0 -16.94,-3.711 -22.92,-11.137 -5.97,-7.418 -8.96,-15.855 -8.96,-25.312 v -47.34 c 0,-3.3593 1.76,-5.4687 5.28,-6.3281 3.51,-0.8633 7.96,-1.293 13.36,-1.293 v -8.4375 h -54.97"
         style="fill:#262626;fill-opacity:1;fill-rule:nonzero;stroke:none"
         id="path52"
         inkscape:connector-curvature="0" /><path
         d="m 2474.53,6.39844 c -1.4,0 -2.1,0.70312 -2.1,2.10937 0,0.70313 0.15,1.21094 0.46,1.52349 27.34,26.7187 41.02,65.5078 41.02,116.3667 0,50.864 -13.52,89.493 -40.55,115.899 -0.62,0.391 -0.93,1.055 -0.93,1.996 0,0.543 0.21,1.031 0.64,1.461 0.43,0.43 0.92,0.644 1.46,0.644 h 2.23 c 0.47,0 0.86,-0.152 1.17,-0.464 11.48,-9.063 21.05,-20.082 28.71,-33.051 7.66,-12.965 13.27,-26.793 16.82,-41.485 3.56,-14.683 5.33,-29.683 5.33,-45 0,-11.328 -0.95,-22.48 -2.87,-33.4566 -1.91,-10.9726 -4.96,-21.793 -9.14,-32.4609 -4.18,-10.6641 -9.48,-20.5039 -15.88,-29.5274 -6.4,-9.0234 -14.06,-17.0508 -22.97,-24.08201 -0.31,-0.3125 -0.7,-0.47265 -1.17,-0.47265 h -2.23"
         style="fill:#262626;fill-opacity:1;fill-rule:nonzero;stroke:none"
         id="path54"
         inkscape:connector-curvature="0" /><path
         d="M 572.5,535 V 2897.5"
         style="fill:none;stroke:#262626;stroke-width:15;stroke-linecap:square;stroke-linejoin:round;stroke-miterlimit:10;stroke-dasharray:none;stroke-opacity:1"
         id="path56"
         inkscape:connector-curvature="0" /><path
         d="M 3782.5,535 V 2897.5"
         style="fill:none;stroke:#262626;stroke-width:15;stroke-linecap:square;stroke-linejoin:round;stroke-miterlimit:10;stroke-dasharray:none;stroke-opacity:1"
         id="path58"
         inkscape:connector-curvature="0" /><path
         d="m 572.5,535 h 32.078"
         style="fill:none;stroke:#262626;stroke-width:15;stroke-linecap:square;stroke-linejoin:round;stroke-miterlimit:10;stroke-dasharray:none;stroke-opacity:1"
         id="path60"
         inkscape:connector-curvature="0" /><path
         d="m 572.5,928.75 h 32.078"
         style="fill:none;stroke:#262626;stroke-width:15;stroke-linecap:square;stroke-linejoin:round;stroke-miterlimit:10;stroke-dasharray:none;stroke-opacity:1"
         id="path62"
         inkscape:connector-curvature="0" /><path
         d="m 572.5,1322.5 h 32.078"
         style="fill:none;stroke:#262626;stroke-width:15;stroke-linecap:square;stroke-linejoin:round;stroke-miterlimit:10;stroke-dasharray:none;stroke-opacity:1"
         id="path64"
         inkscape:connector-curvature="0" /><path
         d="m 572.5,1716.25 h 32.078"
         style="fill:none;stroke:#262626;stroke-width:15;stroke-linecap:square;stroke-linejoin:round;stroke-miterlimit:10;stroke-dasharray:none;stroke-opacity:1"
         id="path66"
         inkscape:connector-curvature="0" /><path
         d="m 572.5,2110 h 32.078"
         style="fill:none;stroke:#262626;stroke-width:15;stroke-linecap:square;stroke-linejoin:round;stroke-miterlimit:10;stroke-dasharray:none;stroke-opacity:1"
         id="path68"
         inkscape:connector-curvature="0" /><path
         d="m 572.5,2503.75 h 32.078"
         style="fill:none;stroke:#262626;stroke-width:15;stroke-linecap:square;stroke-linejoin:round;stroke-miterlimit:10;stroke-dasharray:none;stroke-opacity:1"
         id="path70"
         inkscape:connector-curvature="0" /><path
         d="m 572.5,2897.5 h 32.078"
         style="fill:none;stroke:#262626;stroke-width:15;stroke-linecap:square;stroke-linejoin:round;stroke-miterlimit:10;stroke-dasharray:none;stroke-opacity:1"
         id="path72"
         inkscape:connector-curvature="0" /><path
         d="m 3782.5,535 h -32.08"
         style="fill:none;stroke:#262626;stroke-width:15;stroke-linecap:square;stroke-linejoin:round;stroke-miterlimit:10;stroke-dasharray:none;stroke-opacity:1"
         id="path74"
         inkscape:connector-curvature="0" /><path
         d="m 3782.5,928.75 h -32.08"
         style="fill:none;stroke:#262626;stroke-width:15;stroke-linecap:square;stroke-linejoin:round;stroke-miterlimit:10;stroke-dasharray:none;stroke-opacity:1"
         id="path76"
         inkscape:connector-curvature="0" /><path
         d="m 3782.5,1322.5 h -32.08"
         style="fill:none;stroke:#262626;stroke-width:15;stroke-linecap:square;stroke-linejoin:round;stroke-miterlimit:10;stroke-dasharray:none;stroke-opacity:1"
         id="path78"
         inkscape:connector-curvature="0" /><path
         d="m 3782.5,1716.25 h -32.08"
         style="fill:none;stroke:#262626;stroke-width:15;stroke-linecap:square;stroke-linejoin:round;stroke-miterlimit:10;stroke-dasharray:none;stroke-opacity:1"
         id="path80"
         inkscape:connector-curvature="0" /><path
         d="m 3782.5,2110 h -32.08"
         style="fill:none;stroke:#262626;stroke-width:15;stroke-linecap:square;stroke-linejoin:round;stroke-miterlimit:10;stroke-dasharray:none;stroke-opacity:1"
         id="path82"
         inkscape:connector-curvature="0" /><path
         d="m 3782.5,2503.75 h -32.08"
         style="fill:none;stroke:#262626;stroke-width:15;stroke-linecap:square;stroke-linejoin:round;stroke-miterlimit:10;stroke-dasharray:none;stroke-opacity:1"
         id="path84"
         inkscape:connector-curvature="0" /><path
         d="m 3782.5,2897.5 h -32.08"
         style="fill:none;stroke:#262626;stroke-width:15;stroke-linecap:square;stroke-linejoin:round;stroke-miterlimit:10;stroke-dasharray:none;stroke-opacity:1"
         id="path86"
         inkscape:connector-curvature="0" /><g
         id="g88"
         transform="scale(10)"><text
           transform="matrix(1,0,0,-1,29.55,47.125)"
           style="font-variant:normal;font-weight:normal;font-size:15.99979973px;font-family:Helvetica;-inkscape-font-specification:Helvetica;writing-mode:lr-tb;fill:#262626;fill-opacity:1;fill-rule:nonzero;stroke:none"
           id="text104"><tspan
             x="0 8.8958883 13.343833"
             y="0"
             sodipodi:role="line"
             id="tspan90">0.5</tspan><tspan
             x="0 8.8958883 13.343833"
             y="-39.375"
             sodipodi:role="line"
             id="tspan92">0.6</tspan><tspan
             x="0 8.8958883 13.343833"
             y="-78.75"
             sodipodi:role="line"
             id="tspan94">0.7</tspan><tspan
             x="0 8.8958883 13.343833"
             y="-118.125"
             sodipodi:role="line"
             id="tspan96">0.8</tspan><tspan
             x="0 8.8958883 13.343833"
             y="-157.5"
             sodipodi:role="line"
             id="tspan98">0.9</tspan><tspan
             x="13.5"
             y="-196.875"
             id="tspan100">1</tspan><tspan
             x="0 8.8958883 13.343833"
             y="-236.25"
             sodipodi:role="line"
             id="tspan102">1.1</tspan></text>
</g><path
         d="m 184.293,1510.45 c 0,-1.96 -0.625,-3.64 -1.875,-5.05 -1.25,-1.4 -2.891,-2.1 -4.922,-2.1 -0.933,0 -1.637,0.08 -2.105,0.23 l -71.602,17.93 c -4.457,1.17 -8.3632,1.75 -11.7226,1.75 -6.875,0 -10.3125,-2.34 -10.3125,-7.03 0,-5 2.9883,-8.71 8.9688,-11.13 5.9765,-2.42 13.5313,-4.76 22.6723,-7.03 0.468,0 0.843,-0.23 1.117,-0.7 0.269,-0.47 0.406,-0.9 0.406,-1.29 v -2.82 c 0,-0.54 -0.293,-1.01 -0.879,-1.41 -0.586,-0.38 -1.113,-0.58 -1.582,-0.58 -6.949,1.72 -12.8476,3.38 -17.6914,4.98 -4.8437,1.6 -9.2617,4.1 -13.2461,7.5 -3.9843,3.4 -5.9765,7.64 -5.9765,12.72 0,5.94 1.875,11.23 5.625,15.88 3.75,4.65 8.5937,6.97 14.5351,6.97 -6.25,4.69 -11.1718,10.19 -14.7695,16.53 -3.5938,6.32 -5.3906,13.2 -5.3906,20.62 0,8.36 2.2461,15.06 6.7422,20.1 4.4882,5.03 10.875,7.55 19.1558,7.55 4.77,0 9.184,-0.54 13.243,-1.64 l 111.097,-27.88 c 2.266,-0.47 4.102,-1.65 5.508,-3.52 1.402,-1.88 2.106,-3.99 2.106,-6.33 0,-1.95 -0.606,-3.63 -1.817,-5.04 -1.207,-1.41 -2.828,-2.11 -4.859,-2.11 -0.938,0 -1.563,0.08 -1.875,0.24 l -110.625,27.53 c -6.563,1.64 -12.035,2.47 -16.4104,2.47 -4.4531,0 -8.2422,-0.94 -11.3672,-2.82 -3.125,-1.87 -4.6875,-4.88 -4.6875,-9.02 0,-15.7 9.6875,-28.75 29.0621,-39.15 l 65.512,-16.28 c 2.184,-0.55 4.059,-1.78 5.625,-3.69 1.559,-1.91 2.34,-4.04 2.34,-6.38"
         style="fill:#262626;fill-opacity:1;fill-rule:nonzero;stroke:none"
         id="path106"
         inkscape:connector-curvature="0" /><path
         d="m 236.793,1626.04 c -0.465,0 -0.777,0.07 -0.938,0.23 L 4.53125,1709.7 c -0.9375,0.32 -1.66406,0.87 -2.17187,1.65 -0.50782,0.78 -0.75782,1.67 -0.75782,2.69 0,1.41 0.42969,2.56 1.28907,3.46 0.85937,0.89 2.03125,1.35 3.51562,1.35 h 0.9375 L 238.668,1635.41 c 1.953,-0.94 2.934,-2.46 2.934,-4.57 0,-1.33 -0.473,-2.46 -1.411,-3.4 -0.937,-0.94 -2.07,-1.4 -3.398,-1.4"
         style="fill:#262626;fill-opacity:1;fill-rule:nonzero;stroke:none"
         id="path108"
         inkscape:connector-curvature="0" /><path
         d="m 184.293,1758.22 c 0,-1.95 -0.625,-3.63 -1.875,-5.04 -1.25,-1.4 -2.891,-2.11 -4.922,-2.11 -0.933,0 -1.637,0.08 -2.105,0.23 l -71.602,17.94 c -4.457,1.17 -8.3632,1.75 -11.7226,1.75 -6.875,0 -10.3125,-2.34 -10.3125,-7.03 0,-5 2.9883,-8.71 8.9688,-11.13 5.9765,-2.42 13.5313,-4.76 22.6723,-7.03 0.468,0 0.843,-0.23 1.117,-0.7 0.269,-0.47 0.406,-0.9 0.406,-1.3 v -2.81 c 0,-0.54 -0.293,-1.01 -0.879,-1.4 -0.586,-0.39 -1.113,-0.59 -1.582,-0.59 -6.949,1.72 -12.8476,3.38 -17.6914,4.99 -4.8437,1.6 -9.2617,4.1 -13.2461,7.5 -3.9843,3.39 -5.9765,7.63 -5.9765,12.71 0,5.93 1.875,11.23 5.625,15.88 3.75,4.65 8.5937,6.97 14.5351,6.97 -6.25,4.69 -11.1718,10.19 -14.7695,16.52 -3.5938,6.33 -5.3906,13.2 -5.3906,20.63 0,8.36 2.2461,15.06 6.7422,20.1 4.4882,5.03 10.875,7.55 19.1558,7.55 4.77,0 9.184,-0.55 13.243,-1.64 l 111.097,-27.89 c 2.266,-0.46 4.102,-1.64 5.508,-3.52 1.402,-1.87 2.106,-3.98 2.106,-6.32 0,-1.95 -0.606,-3.63 -1.817,-5.04 -1.207,-1.41 -2.828,-2.11 -4.859,-2.11 -0.938,0 -1.563,0.08 -1.875,0.23 l -110.625,27.54 c -6.563,1.64 -12.035,2.46 -16.4104,2.46 -4.4531,0 -8.2422,-0.93 -11.3672,-2.81 -3.125,-1.87 -4.6875,-4.88 -4.6875,-9.02 0,-15.7 9.6875,-28.75 29.0621,-39.14 l 65.512,-16.29 c 2.184,-0.55 4.059,-1.78 5.625,-3.69 1.559,-1.91 2.34,-4.04 2.34,-6.39"
         style="fill:#262626;fill-opacity:1;fill-rule:nonzero;stroke:none"
         id="path110"
         inkscape:connector-curvature="0" /><path
         d="m 221.23,1892.97 c 0,-13.51 -5.546,-22.69 -16.644,-27.54 -11.09,-4.84 -24.289,-7.26 -39.606,-7.26 -9.531,0 -18.515,0.88 -26.957,2.63 -8.433,1.77 -15.601,5.22 -21.5,10.38 -5.894,5.15 -8.843,12.42 -8.843,21.79 0,7.27 1.777,13.21 5.332,17.82 3.551,4.6 8.136,8.12 13.761,10.54 5.625,2.43 11.645,4.09 18.055,4.98 6.406,0.9 13.121,1.35 20.152,1.35 9.454,0 18.301,-0.88 26.543,-2.64 8.243,-1.75 15.258,-5.19 21.036,-10.31 5.781,-5.12 8.671,-12.36 8.671,-21.74 z m -4.335,0 c 0,6.1 -3.125,10.65 -9.375,13.66 -6.25,3 -13.204,4.86 -20.856,5.57 -7.656,0.69 -15.781,1.05 -24.375,1.05 -8.281,0 -15.898,-0.36 -22.855,-1.05 -6.954,-0.71 -13.262,-2.55 -18.922,-5.52 -5.664,-2.97 -8.496,-7.54 -8.496,-13.71 0,-6.25 2.832,-10.88 8.496,-13.89 5.66,-3 11.968,-4.86 18.922,-5.56 6.957,-0.7 14.574,-1.05 22.855,-1.05 6.168,0 11.969,0.16 17.399,0.46 5.429,0.32 11.015,1.12 16.761,2.4 5.742,1.3 10.582,3.38 14.528,6.28 3.945,2.89 5.918,6.68 5.918,11.36"
         style="fill:#262626;fill-opacity:1;fill-rule:nonzero;stroke:none"
         id="path112"
         inkscape:connector-curvature="0" /><path
         d="m 679.504,2561.72 31.34,-12.12 31.344,-12.25 31.343,-12.36 31.34,-12.49 31.344,-12.61 31.344,-12.73 31.347,-12.85 31.344,-12.97 31.344,-13.1 31.34,-13.21 31.346,-13.34 31.34,-13.46 31.34,-13.58 31.34,-13.7 31.36,-13.83 31.34,-13.94 31.34,-14.07 31.34,-14.18 31.34,-14.31 31.35,-14.43 31.34,-14.55 31.34,-14.68 31.35,-14.8 31.35,-14.91 31.34,-15.04 31.34,-15.16 31.34,-15.28 31.34,-15.4 31.35,-15.53 31.34,-15.64 31.35,-15.77 31.34,-15.89 31.35,-16 31.34,-16.14 31.34,-16.25 31.34,-16.38 31.34,-16.49 31.35,-16.62 31.35,-16.73 31.34,-16.86 31.34,-16.99 31.35,-17.1 31.34,-17.23 31.34,-17.35 31.34,-17.47 31.35,-17.58 31.34,-17.71 31.35,-17.84 31.34,-17.95 31.34,-18.08 31.35,-18.19 31.34,-18.31 31.34,-18.45 31.34,-18.56 31.35,-18.68 31.34,-18.81 31.35,-18.92 31.34,-19.05 31.34,-19.17 31.35,-19.29 31.34,-19.41 31.34,-19.53 31.35,-19.65 31.34,-19.78 31.34,-19.9 31.35,-20.02 31.34,-20.14 31.34,-20.26 31.35,-20.38 31.34,-20.5 31.34,-20.63 31.35,-20.75 31.34,-20.87 31.34,-20.99 31.35,-21.11 31.34,-21.23 31.34,-21.36 31.35,-21.47 31.35,-21.61 31.34,-21.71 31.34,-21.84 31.34,-21.97 31.34,-22.08 31.35,-22.21 31.34,-22.33 31.34,-22.45 31.35,-22.56 31.35,-22.7 31.34,-22.81 31.34,-22.93 31.34,-23.055 31.34,-23.183 31.35,-23.293 31.34,-23.426 31.35,-23.539 31.34,-23.664 31.35,-23.781 31.34,-23.91 31.34,-24.024"
         style="fill:none;stroke:#00ff00;stroke-width:30;stroke-linecap:butt;stroke-linejoin:round;stroke-miterlimit:10;stroke-dasharray:none;stroke-opacity:1"
         id="path114"
         inkscape:connector-curvature="0" /><path
         d="m 655,2605 h 465 v 210 H 655 Z"
         style="fill:#ffffff;fill-opacity:1;fill-rule:nonzero;stroke:none"
         id="path116"
         inkscape:connector-curvature="0" /><g
         id="g118"
         transform="scale(10)"><text
           transform="matrix(1,0,0,-1,100.75,265.75)"
           style="font-variant:normal;font-weight:normal;font-size:14.00020027px;font-family:Helvetica;-inkscape-font-specification:Helvetica;writing-mode:lr-tb;fill:#000000;fill-opacity:1;fill-rule:nonzero;stroke:none"
           id="text122"><tspan
             x="0"
             y="0"
             id="tspan120">1</tspan></text>
</g><path
         d="M 685,2710 H 985"
         style="fill:none;stroke:#00ff00;stroke-width:30;stroke-linecap:butt;stroke-linejoin:round;stroke-miterlimit:10;stroke-dasharray:none;stroke-opacity:1"
         id="path124"
         inkscape:connector-curvature="0" /><path
         d="m 655,2605 h 465 v 210 H 655 Z"
         style="fill:none;stroke:#262626;stroke-width:15;stroke-linecap:butt;stroke-linejoin:miter;stroke-miterlimit:10;stroke-dasharray:none;stroke-opacity:1"
         id="path126"
         inkscape:connector-curvature="0" /></g><text
       xml:space="preserve"
       style="font-style:normal;font-weight:normal;font-size:15px;line-height:1.25;font-family:sans-serif;letter-spacing:0px;word-spacing:0px;fill:#000000;fill-opacity:1;stroke:none;stroke-width:0.75"
       x="72.968201"
       y="-199.44641"
       id="text130"
       transform="scale(1,-1)"><tspan
         sodipodi:role="line"
         id="tspan128"
         x="72.968201"
         y="-199.44641"
         style="font-size:12px;line-height:0;stroke-width:0.75">vfrac = 0.01;</tspan><tspan
         sodipodi:role="line"
         x="72.968201"
         y="-180.69641"
         style="font-size:12px;line-height:0;stroke-width:0.75"
         id="tspan132">B = 0.88;</tspan><tspan
         sodipodi:role="line"
         x="72.968201"
         y="-161.94641"
         style="font-size:12px;line-height:0;stroke-width:0.75"
         id="tspan134">U0 = 20;</tspan><tspan
         sodipodi:role="line"
         x="72.968201"
         y="-143.19641"
         style="font-size:12px;line-height:0;stroke-width:0.75"
         id="tspan136">alpha = -15;</tspan><tspan
         sodipodi:role="line"
         x="72.968201"
         y="-124.4464"
         style="font-size:12px;line-height:0;stroke-width:0.75"
         id="tspan138">a = 10; </tspan><tspan
         sodipodi:role="line"
         x="72.968201"
         y="-105.6964"
         style="font-size:12px;line-height:0;stroke-width:0.75"
         id="tspan140">Pe_R = a/h;</tspan><tspan
         sodipodi:role="line"
         x="72.968201"
         y="-86.946404"
         style="font-size:12px;line-height:0;stroke-width:0.75"
         id="tspan142">K = 1.5;</tspan><tspan
         sodipodi:role="line"
         x="72.968201"
         y="-68.196404"
         style="font-size:12px;line-height:0;stroke-width:0.75"
         id="tspan144">aspect_ratio = 1.7/0.5;</tspan></text>
</g></svg>